<svg width="78" height="23" viewBox="0 0 78 23" fill="none" xmlns="http://www.w3.org/2000/svg">
<path d="M69.854 17.7422L65.0049 5.26824H68.7663L71.4515 13.0404H71.6327L74.1932 5.26824H78L72.7997 19.283C72.3616 20.4764 71.7536 21.3676 70.9756 21.9568C70.2052 22.5535 69.212 22.8518 67.9959 22.8518H66.3758V19.6682H67.792C68.653 19.6682 69.2686 19.2226 69.6387 18.3313L69.854 17.7422Z" fill="#101828"/>
<path d="M53.4419 11.3863C53.4192 10.2004 53.676 9.12035 54.2123 8.146C54.7486 7.1641 55.5152 6.38613 56.5122 5.8121C57.5168 5.23806 58.6498 4.95482 59.9111 4.96237C61.603 4.96237 63.0117 5.43444 64.1371 6.37858C65.2927 7.33027 65.9498 8.54254 66.1084 10.0154H62.4603C62.279 9.46402 61.9656 9.02594 61.5199 8.70115C61.0743 8.37637 60.5456 8.21398 59.9338 8.21398C59.0727 8.21398 58.3816 8.51233 57.8605 9.10902C57.3393 9.69816 57.0787 10.4572 57.0787 11.3863C57.0787 12.3153 57.3431 13.0782 57.8718 13.6749C58.4005 14.2716 59.0954 14.5699 59.9564 14.5699C60.5456 14.5699 61.063 14.4151 61.5086 14.1054C61.9618 13.7957 62.2639 13.3916 62.415 12.8931H66.0858C65.8818 14.3735 65.2247 15.5669 64.1144 16.4733C63.0117 17.3721 61.6181 17.8215 59.9338 17.8215C58.9896 17.8291 58.1059 17.6667 57.2826 17.3343C56.4594 16.9944 55.7645 16.5337 55.198 15.9521C54.6391 15.363 54.201 14.6756 53.8838 13.8901C53.5741 13.0971 53.4268 12.2624 53.4419 11.3863Z" fill="#101828"/>
<path d="M44.9832 17.5156H41.3804V5.26827H44.7679V6.60517H44.9605C45.24 6.12177 45.6705 5.72901 46.2521 5.42688C46.8337 5.11721 47.4984 4.96237 48.2461 4.96237C49.5679 4.96237 50.6291 5.37401 51.4298 6.1973C52.2304 6.99793 52.6307 8.04781 52.6307 9.34694V17.5156H49.0392V10.4572C49.0392 9.80768 48.8579 9.28651 48.4954 8.89375C48.1404 8.50099 47.6645 8.30461 47.0678 8.30461C46.456 8.30461 45.9538 8.52743 45.561 8.97306C45.1758 9.41869 44.9832 9.97762 44.9832 10.6498V17.5156Z" fill="#101828"/>
<path d="M27.0982 11.4542C27.0982 9.51311 27.6081 7.95339 28.6277 6.77511C29.6776 5.56662 31.0221 4.96237 32.6611 4.96237C33.4541 4.96237 34.149 5.12854 34.7457 5.46087C35.35 5.78565 35.8069 6.18597 36.1166 6.66181H36.3092V5.26827H39.9007V17.5156H36.3319V16.1221H36.1393C36.026 16.3033 35.8862 16.4771 35.7201 16.6432C35.5615 16.8094 35.3462 16.9907 35.0743 17.187C34.8024 17.3759 34.4663 17.5269 34.0659 17.6402C33.6656 17.7611 33.2276 17.8215 32.7517 17.8215C31.0674 17.8215 29.7003 17.2399 28.6504 16.0767C27.6156 14.9287 27.0982 13.3878 27.0982 11.4542ZM30.735 11.3863C30.735 12.3304 30.9956 13.097 31.5168 13.6862C32.0379 14.2753 32.7215 14.5699 33.5674 14.5699C34.4058 14.5699 35.0818 14.2716 35.5954 13.6749C36.1166 13.0782 36.3772 12.3153 36.3772 11.3863C36.3772 10.427 36.1128 9.66039 35.5841 9.08636C35.063 8.50477 34.3832 8.21397 33.5448 8.21397C32.7139 8.21397 32.0379 8.50854 31.5168 9.09769C30.9956 9.68683 30.735 10.4497 30.735 11.3863Z" fill="#101828"/>
<path d="M18.6395 17.5156H15.0367V5.26827H18.4243V6.60517H18.6169C18.8963 6.12177 19.3268 5.72901 19.9084 5.42688C20.49 5.11721 21.1547 4.96237 21.9024 4.96237C23.2242 4.96237 24.2854 5.37401 25.0861 6.1973C25.8867 6.99793 26.287 8.04781 26.287 9.34694V17.5156H22.6955V10.4572C22.6955 9.80768 22.5142 9.28651 22.1517 8.89375C21.7967 8.50099 21.3209 8.30461 20.7242 8.30461C20.1124 8.30461 19.6101 8.52743 19.2173 8.97306C18.8321 9.41869 18.6395 9.97762 18.6395 10.6498V17.5156Z" fill="#101828"/>
<path d="M10.2261 3.3649C9.83337 3.01746 9.63699 2.54539 9.63699 1.9487C9.63699 1.352 9.83337 0.879935 10.2261 0.532493C10.6264 0.177498 11.1363 0 11.7556 0C12.375 0 12.8848 0.177498 13.2851 0.532493C13.6703 0.872382 13.8629 1.352 13.8629 1.97136C13.8629 2.5756 13.6703 3.04767 13.2851 3.38756C12.8999 3.72745 12.3901 3.89739 11.7556 3.89739C11.1363 3.89739 10.6264 3.7199 10.2261 3.3649ZM13.5684 17.5156H9.96555V5.26828H13.5684V17.5156Z" fill="#101828"/>
<path d="M1.99402 8.06673H0V5.26831H2.09598V4.47523C2.09598 3.13078 2.51896 2.06957 3.3649 1.29161C4.2184 0.506084 5.35514 0.113323 6.77512 0.113323H8.54254V3.08169H7.19432C6.65805 3.08169 6.25018 3.22142 5.97072 3.50088C5.69125 3.7728 5.55152 4.15045 5.55152 4.63385V5.26831H8.63318V8.06673H5.59684V17.5156H1.99402V8.06673Z" fill="#101828"/>
</svg>
